<svg width="17" height="18" viewBox="0 0 17 18" fill="none" xmlns="http://www.w3.org/2000/svg">
<path d="M13.3278 3.57442L13.3278 3.57442L13.3258 3.57224C12.9244 3.11862 12.261 3.04395 11.7925 3.38122L11.792 3.38154C11.294 3.73899 11.1249 4.40249 11.4036 4.9542L11.4049 4.95693C11.4668 5.08179 11.5669 5.20884 11.6864 5.3283L11.6882 5.33009C13.1247 6.78405 13.7015 8.55934 13.1911 10.6152L13.191 10.6154C12.7036 12.5752 11.4486 13.8774 9.60136 14.4632L9.60083 14.4633C7.80018 15.0315 6.10419 14.6686 4.65078 13.4469C3.39797 12.3965 2.75636 10.9826 2.73431 9.3175C2.71531 7.98877 3.16114 6.81381 3.98024 5.81102C4.05151 5.72322 4.13118 5.65207 4.18856 5.60126C4.19357 5.59682 4.19843 5.59252 4.20315 5.58835C4.25949 5.53851 4.29455 5.5075 4.32488 5.47403L4.32486 5.47401L4.32786 5.47078C4.65763 5.11481 4.74596 4.71126 4.60201 4.23781C4.45636 3.77109 4.14822 3.50609 3.68444 3.41199C3.34584 3.34403 3.03961 3.42863 2.73781 3.67099L2.7366 3.67195C2.13439 4.15172 1.71179 4.80179 1.31781 5.53729C0.655798 6.77434 0.357351 8.10983 0.404861 9.53065L0.404877 9.53113C0.46076 11.2638 1.00922 12.8025 2.04379 14.1533C3.02601 15.4327 4.2524 16.3297 5.73624 16.7826L5.73657 16.7827C8.2689 17.558 10.6091 17.1532 12.729 15.4934L12.7292 15.4933C14.1012 14.4205 15.0031 12.995 15.451 11.2534L15.4514 11.2517C15.6197 10.6094 15.6929 9.94806 15.6959 9.26796C15.6643 7.10308 14.9232 5.26118 13.4645 3.7297L13.7542 3.45383L13.4653 3.73053C13.434 3.6978 13.3826 3.63807 13.3517 3.60207C13.3402 3.58874 13.3316 3.57866 13.3278 3.57442Z" fill="#FE724C" stroke="white" stroke-width="0.8"/>
<path d="M6.46838 6.94208C6.47131 7.78243 7.0831 8.47915 7.8793 8.5586C8.70477 8.64416 9.44242 8.08801 9.60635 7.25072C9.62976 7.13154 9.63269 7.00931 9.63269 6.88707M6.46838 6.94208C6.46253 4.68079 6.46253 3.88615 6.46838 1.62486C6.46838 1.02287 6.74061 0.555328 7.22946 0.249747C7.73879 -0.0711119 8.28325 -0.0833351 8.80429 0.216134C9.33704 0.521714 9.62391 1.00759 9.62684 1.6493M6.46838 6.94208L6.86838 6.94104C6.86838 6.94101 6.86838 6.94098 6.86838 6.94095C6.87077 7.58991 7.34026 8.10282 7.91901 8.16057L7.92054 8.16073C8.53269 8.22418 9.08819 7.81547 9.2138 7.17386L9.21385 7.17359C9.22915 7.09575 9.23267 7.0074 9.23269 6.88811M6.46838 6.94208L6.86838 6.94069L9.23269 6.88811M9.62684 1.6493C9.6287 2.36708 9.62819 2.78671 9.62757 3.2888C9.62722 3.57333 9.62684 3.88435 9.62684 4.29111V4.29116C9.62684 5.40038 9.62684 5.77784 9.63269 6.88707M9.62684 1.6493L9.22684 1.65113C9.22684 1.65101 9.22684 1.65088 9.22684 1.65076M9.62684 1.6493L9.22684 1.65035C9.22684 1.65048 9.22684 1.65062 9.22684 1.65076M9.63269 6.88707L9.2327 6.88919C9.23269 6.88883 9.23269 6.88847 9.23269 6.88811M9.63269 6.88707H9.23269C9.23269 6.88742 9.23269 6.88777 9.23269 6.88811M9.23269 6.88811C9.22684 5.77867 9.22684 5.40031 9.22684 4.29111C9.22684 3.88331 9.22722 3.572 9.22757 3.28742C9.22819 2.78601 9.2287 2.36762 9.22684 1.65076M9.23269 6.88811L6.86838 1.62589L6.86839 1.62486C6.86838 1.16381 7.06697 0.82304 7.44148 0.58893L7.44266 0.588192L7.44266 0.58819C7.82737 0.345842 8.21311 0.337714 8.60497 0.562934L8.60527 0.563108C9.01251 0.796695 9.22445 1.14996 9.22684 1.65076" fill="#FE724C" stroke="white" stroke-width="0.8"/>
</svg>
