<svg width="26" height="26" viewBox="0 0 26 26" fill="none" xmlns="http://www.w3.org/2000/svg">
<circle cx="13" cy="13" r="13" fill="white"/>
<path d="M18.3278 6.57442L18.3278 6.57442L18.3258 6.57224C17.9244 6.11862 17.261 6.04395 16.7925 6.38122L16.792 6.38154C16.294 6.73899 16.1249 7.40249 16.4036 7.9542L16.4049 7.95693C16.4668 8.08179 16.5669 8.20884 16.6864 8.3283L16.6882 8.33009C18.1247 9.78405 18.7015 11.5593 18.1911 13.6152L18.191 13.6154C17.7036 15.5752 16.4486 16.8774 14.6014 17.4632L14.6008 17.4633C12.8002 18.0315 11.1042 17.6686 9.65078 16.4469C8.39797 15.3965 7.75636 13.9826 7.73431 12.3175C7.71531 10.9888 8.16114 9.81381 8.98024 8.81102C9.05151 8.72322 9.13118 8.65207 9.18856 8.60126C9.19357 8.59682 9.19843 8.59252 9.20315 8.58835C9.25949 8.53851 9.29455 8.5075 9.32488 8.47403L9.32486 8.47401L9.32786 8.47078C9.65763 8.11481 9.74596 7.71126 9.60201 7.23781C9.45636 6.77109 9.14822 6.50609 8.68444 6.41199C8.34584 6.34403 8.03961 6.42863 7.73781 6.67099L7.7366 6.67195C7.13439 7.15172 6.71179 7.80179 6.31781 8.53729C5.6558 9.77434 5.35735 11.1098 5.40486 12.5307L5.40488 12.5311C5.46076 14.2638 6.00922 15.8025 7.04379 17.1533C8.02601 18.4327 9.2524 19.3297 10.7362 19.7826L10.7366 19.7827C13.2689 20.558 15.6091 20.1532 17.729 18.4934L17.7292 18.4933C19.1012 17.4205 20.0031 15.995 20.451 14.2534L20.4514 14.2517C20.6197 13.6094 20.6929 12.9481 20.6959 12.268C20.6643 10.1031 19.9232 8.26118 18.4645 6.7297L18.7542 6.45383L18.4653 6.73053C18.434 6.6978 18.3826 6.63807 18.3517 6.60207C18.3402 6.58874 18.3316 6.57866 18.3278 6.57442Z" fill="#FE724C" stroke="white" stroke-width="0.8"/>
<path d="M11.4684 9.94208C11.4713 10.7824 12.0831 11.4791 12.8793 11.5586C13.7048 11.6442 14.4424 11.088 14.6063 10.2507C14.6298 10.1315 14.6327 10.0093 14.6327 9.88707M11.4684 9.94208C11.4625 7.68079 11.4625 6.88615 11.4684 4.62486C11.4684 4.02287 11.7406 3.55533 12.2295 3.24975C12.7388 2.92889 13.2832 2.91666 13.8043 3.21613C14.337 3.52171 14.6239 4.00759 14.6268 4.6493M11.4684 9.94208L11.8684 9.94104C11.8684 9.94101 11.8684 9.94098 11.8684 9.94095C11.8708 10.5899 12.3403 11.1028 12.919 11.1606L12.9205 11.1607C13.5327 11.2242 14.0882 10.8155 14.2138 10.1739L14.2139 10.1736C14.2291 10.0957 14.2327 10.0074 14.2327 9.88811M11.4684 9.94208L11.8684 9.94069L14.2327 9.88811M14.6268 4.6493C14.6287 5.36708 14.6282 5.78671 14.6276 6.2888C14.6272 6.57333 14.6268 6.88435 14.6268 7.29111V7.29116C14.6268 8.40038 14.6268 8.77784 14.6327 9.88707M14.6268 4.6493L14.2268 4.65113C14.2268 4.65101 14.2268 4.65088 14.2268 4.65076M14.6268 4.6493L14.2268 4.65035C14.2268 4.65048 14.2268 4.65062 14.2268 4.65076M14.6327 9.88707L14.2327 9.88919C14.2327 9.88883 14.2327 9.88847 14.2327 9.88811M14.6327 9.88707H14.2327C14.2327 9.88742 14.2327 9.88777 14.2327 9.88811M14.2327 9.88811C14.2268 8.77867 14.2268 8.40031 14.2268 7.29111C14.2268 6.88331 14.2272 6.572 14.2276 6.28742C14.2282 5.78601 14.2287 5.36762 14.2268 4.65076M14.2327 9.88811L11.8684 4.62589L11.8684 4.62486C11.8684 4.16381 12.067 3.82304 12.4415 3.58893L12.4427 3.58819L12.4427 3.58819C12.8274 3.34584 13.2131 3.33771 13.605 3.56293L13.6053 3.56311C14.0125 3.7967 14.2245 4.14996 14.2268 4.65076" fill="#FE724C" stroke="white" stroke-width="0.8"/>
</svg>
